# File produced by Open Asset Import Library (http://www.assimp.sf.net)
# (assimp v3.1.128981410)

mtllib Grass.mtl

# vertex positions
v -10.520667 -0.536670 10.520667
v 0.000000 20.504662 -0.000003
v -10.520667 -0.536673 -10.520667
v 10.520667 -0.536673 -10.520667
v 10.520667 -0.536670 10.520667
v -8.061954 11.204068 -8.061955
v 0.000000 27.327978 -0.000004
v 8.061954 11.204068 -8.061955
v -8.061954 11.204070 8.061952
v 8.061954 11.204070 8.061952

# UV coordinates
vt 0.283065 0.108183
vt 0.566030 0.000100
vt 0.457947 0.283065
vt 0.566030 0.566030
vt 0.283065 0.457947
vt 0.000100 0.566030
vt 0.108183 0.283065
vt 0.000100 0.000100
vt 0.216935 0.649053
vt 0.433770 0.566230
vt 0.350947 0.783065
vt 0.082924 0.783065
vt 0.000100 0.566230
vt 0.433770 0.999900
vt 0.216935 0.917076
vt 0.000100 0.999900

# vertex normals
vn -0.894427 0.447214 -0.000000
vn 0.000000 0.447213 -0.894427
vn 0.894427 0.447214 -0.000000
vn 0.000000 0.447214 0.894427
vn 0.000000 -1.000000 0.000000
vn 0.000000 0.447213 -0.894427
vn -0.894427 0.447214 -0.000000
vn 0.894427 0.447214 -0.000000
vn 0.000000 0.447214 0.894427

# Mesh
g Cube
usemtl DefaultMaterial
f 1/1/1 2/2/1 3/3/1
f 3/3/2 2/4/2 4/5/2
f 4/5/3 2/6/3 5/7/3
f 5/7/4 2/8/4 1/1/4
f 1/1/5 3/3/5 4/5/5
f 4/5/5 5/7/5 1/1/5
f 6/9/6 7/10/6 8/11/6
f 9/12/7 7/13/7 6/9/7
f 8/11/8 7/14/8 10/15/8
f 10/15/9 7/16/9 9/12/9
f 9/12/5 6/9/5 8/11/5
f 8/11/5 10/15/5 9/12/5
